<svg id="Layer_1" data-name="Layer 1" xmlns="http://www.w3.org/2000/svg" viewBox="0 0 258.61 38.37"><defs><style>.cls-1,.cls-2{fill:#fff;}.cls-2{fill-rule:evenodd;}</style></defs><path class="cls-1" d="M47,30.37a.41.41,0,0,0-.4-.41s-7.78-.36-8.49-.37-8.5.2-8.5.2a.4.4,0,0,0-.41.4s-.36,7.78-.37,8.49.2,8.64.2,8.64a.39.39,0,0,0,.4.4l1.68.07a6.3,6.3,0,0,1,1.27-8.68c.7-.64,1.28-.23,1.74-.65a12.21,12.21,0,0,1-2-3.34,1.48,1.48,0,0,1,2-.39c.54.56-.14,1.75.43,2.35.32-.2.33-.57.26-1.38a2.57,2.57,0,0,1,.62-1.56,4.62,4.62,0,0,1,2-1.72c1.79-.7,5.61.11,5.9-.88.28.94-1.82,2.28-2.54,3.34,2.27.23,3.76.51,5.53,3.14a7.08,7.08,0,0,1,.8,1.83c0-.5,0-.86,0-1C47.23,38.16,47,30.37,47,30.37Z" transform="translate(-9.43 -9.62)"/><path class="cls-2" d="M11.25,37.52ZM18.65,48Zm3.69-2.71Zm5.45-6.64c0-.71-.32-8.5-.32-8.5a.4.4,0,0,0-.4-.4s-7.79-.25-8.5-.25-8.49.32-8.49.32a.41.41,0,0,0-.41.41s-.05,1.67-.11,3.54A11.33,11.33,0,0,1,16,32.28a13.89,13.89,0,0,0-2.33,1.28,12.19,12.19,0,0,0-2.42.24,13.82,13.82,0,0,0-1.75.49l0,1.13a11.81,11.81,0,0,1,2-.59l.79-.13a13.15,13.15,0,0,0-1.91,2.22h0a12.82,12.82,0,0,0-.94,1.64v.14c0,.26,0,1.43.09,2.83a10.69,10.69,0,0,1,.6-1.92h0a9.72,9.72,0,0,1,6.18,1.11L13.39,45a7,7,0,0,0-3.77-.88c0,.37,0,.72,0,1.05a5.81,5.81,0,0,1,3.13.71l-1.26,1.85,1.25,0,.89-1.32A6,6,0,0,1,15,47.87l1.27,0a7.24,7.24,0,0,0-2-2.3l2.95-4.34a10,10,0,0,1,3.56,4.3A11.43,11.43,0,0,1,18.06,48l.59,0,1.27,0a13.07,13.07,0,0,0,1.27-1.2l.12.45q.07.34.12.69l1.06,0a8.72,8.72,0,0,0-.16-.89A9.9,9.9,0,0,0,22,45.76c.12-.16.24-.32.35-.49h0a12.92,12.92,0,0,0,1.73-3.69,11.59,11.59,0,0,1,.64,2.23,11.33,11.33,0,0,1,0,3.94l2.4-.08a.41.41,0,0,0,.4-.41S27.79,39.34,27.79,38.63Zm-9.56-6A11.42,11.42,0,0,1,21,33.87L20,35.3a12.11,12.11,0,0,0-4.45-1.6A12.8,12.8,0,0,1,18.23,32.67Zm-1.31,7.17a11,11,0,0,0-6.26-1.36c.18-.32.38-.64.59-1a11.83,11.83,0,0,1,2.82-2.91,11,11,0,0,1,5.34,1.56Zm4.58,4.77a11.08,11.08,0,0,0-3.69-4.22l2.48-3.65a11.15,11.15,0,0,1,3,3.33A11.86,11.86,0,0,1,21.5,44.61Zm-.62-8.73.95-1.41a10.26,10.26,0,0,1,1.47,1.31,13.18,13.18,0,0,1,.19,2.66A12,12,0,0,0,20.88,35.88Zm5.06,10.25a12.51,12.51,0,0,0-1.51-6.23,13,13,0,0,0,.12-2.49A11.29,11.29,0,0,1,25.94,46.13Z" transform="translate(-9.43 -9.62)"/><path class="cls-2" d="M46.14,19.56a3.91,3.91,0,0,1,.44,1.9,3.1,3.1,0,0,1-.55,2,7.64,7.64,0,0,0-5.11-1.79c-2-.06-4.1.37-5.21,1.44a5.53,5.53,0,0,1-.33-2.35,3.69,3.69,0,0,1,.37-1.5l-2.49-1.11,0,4.88.33.71,1.57.35L34,25.21,34.31,27l-1.52-.85-1.57.77.34-1.72L30.34,23.9l1.74-.2.32-.79,0-5.05-2.58-1.22,11.35-4.76,6.1,2.83-.12-4.3a.42.42,0,0,0-.4-.41s-7.78-.33-8.5-.33-8.49.22-8.49.22a.4.4,0,0,0-.41.4s-.34,7.78-.34,8.49.22,8.64.22,8.64a.4.4,0,0,0,.41.4s7.94.31,8.49.35,8.49-.23,8.49-.23a.4.4,0,0,0,.41-.4s.31-7.15.34-8.47Zm-8,8.61Z" transform="translate(-9.43 -9.62)"/><path class="cls-2" d="M12.34,17.93a1.87,1.87,0,0,0-1.13.45l0,9.56,2.15.07,0-9.53A1.53,1.53,0,0,0,12.34,17.93Zm4.08.09a1.83,1.83,0,0,0-1.21.54l0,9.41,2.19.07,0-9.54A1.39,1.39,0,0,0,16.42,18ZM23,16.22a1.84,1.84,0,0,0-1.81-2,1.9,1.9,0,0,0-1.88,2,1.88,1.88,0,0,0,1.95,2C22.27,18.2,22.94,17.45,23,16.22ZM9.56,14c0,.36-.05.6-.06,1l.07,1.36,8.2,0a3.53,3.53,0,0,1,.81-2.4s-7.5,0-8.4,0A1.89,1.89,0,0,0,9.56,14Zm18.21,4.72c0-.71-.32-8.49-.32-8.49a.4.4,0,0,0-.41-.4s-7.78-.25-8.49-.25-8.5.32-8.5.32a.4.4,0,0,0-.4.4s0,.81-.06,1.92l11.49.13a3.56,3.56,0,0,1,3.27,4,3.18,3.18,0,0,1-3.42,3.32V28c2.9-.08,6.19-.23,6.19-.23a.4.4,0,0,0,.41-.4S27.77,19.48,27.77,18.76Z" transform="translate(-9.43 -9.62)"/><path class="cls-1" d="M54.34,29.57h6.53c3.31,0,4.61,2,4.61,5.19,0,2-.58,5.09-4.82,5.09H58v7H54.34ZM58,37.18h2c1.08,0,1.83-1.17,1.83-2.33,0-1.41-.39-2.61-2-2.61H58Z" transform="translate(-9.43 -9.62)"/><path class="cls-1" d="M79.38,29.57V41.86c0,2.6-1.46,5.33-5.88,5.33-4,0-5.9-2.06-5.9-5.33V29.57h3.62v12c0,2.14.91,3,2.24,3,1.58,0,2.3-1.06,2.3-3v-12Z" transform="translate(-9.43 -9.62)"/><path class="cls-1" d="M82.19,46.9V29.57h6.43c2.76,0,5,.8,5,4.49a3.53,3.53,0,0,1-3,3.82v0c2.57.36,3.24,2,3.24,4.39,0,4.39-3.81,4.58-5.35,4.58Zm3.63-10.25h2.42a1.94,1.94,0,0,0,1.9-2.2,2.08,2.08,0,0,0-2.09-2.21H85.82Zm0,7.59h2a2.16,2.16,0,0,0,2.5-2.45c0-1.54-.58-2.47-2.4-2.47H85.82Z" transform="translate(-9.43 -9.62)"/><path class="cls-1" d="M96,46.9V29.57h3.62V44h5.43V46.9Z" transform="translate(-9.43 -9.62)"/><path class="cls-1" d="M107.38,46.9V29.57H111V46.9Z" transform="translate(-9.43 -9.62)"/><path class="cls-1" d="M114.07,38.24c0-4.59,0-9,6-9,3.7,0,5.19,2,5,5.76h-3.56c0-2.31-.4-3.17-1.49-3.17-2,0-2.3,1.92-2.3,6.36S118,44.6,120,44.6c1.69,0,1.61-2.16,1.66-3.53h3.58c0,4.63-1.85,6.12-5.24,6.12C114.07,47.19,114.07,42.78,114.07,38.24Z" transform="translate(-9.43 -9.62)"/><path class="cls-1" d="M133,46.9V29.57h3.62V46.9Z" transform="translate(-9.43 -9.62)"/><path class="cls-1" d="M139.37,46.9V29.57h4.89l4.61,12h0v-12h3.38V46.9h-4.77L142.8,34.23h-.05V46.9Z" transform="translate(-9.43 -9.62)"/><path class="cls-1" d="M159.58,47.19c-4.49,0-5.33-2.64-5.14-5.64h3.62c0,1.66.08,3.05,2.07,3.05a1.73,1.73,0,0,0,1.82-2c0-3.12-7.29-3.31-7.29-8.47,0-2.71,1.29-4.87,5.71-4.87,3.53,0,5.28,1.58,5,5.2h-3.53c0-1.29-.22-2.61-1.68-2.61a1.69,1.69,0,0,0-1.87,1.85c0,3.28,7.29,3,7.29,8.44C165.62,46.66,162.34,47.19,159.58,47.19Z" transform="translate(-9.43 -9.62)"/><path class="cls-1" d="M178.81,29.57v2.88h-4V46.9h-3.62V32.45h-4V29.57Z" transform="translate(-9.43 -9.62)"/><path class="cls-1" d="M184.26,46.9h-3.62V29.57h6.69c2.48,0,4.06,1.59,4.06,4.54,0,2.21-.86,3.86-3.22,4.25v0a3.08,3.08,0,0,1,3.15,3.41,23.44,23.44,0,0,0,.41,5.08h-3.56a7.93,7.93,0,0,1-.38-3.36c0-2.06.19-3.81-2.59-3.81h-.94Zm0-9.84h1.61c1.44,0,1.85-1.44,1.85-2.54,0-1.66-.7-2.28-1.85-2.28h-1.61Z" transform="translate(-9.43 -9.62)"/><path class="cls-1" d="M205.53,29.57V41.86c0,2.6-1.47,5.33-5.88,5.33-4,0-5.91-2.06-5.91-5.33V29.57h3.63v12c0,2.14.91,3,2.23,3,1.58,0,2.3-1.06,2.3-3v-12Z" transform="translate(-9.43 -9.62)"/><path class="cls-1" d="M208,38.24c0-4.59,0-9,6-9,3.7,0,5.18,2,5,5.76h-3.55c0-2.31-.41-3.17-1.49-3.17-2,0-2.3,1.92-2.3,6.36S212,44.6,214,44.6c1.68,0,1.61-2.16,1.66-3.53h3.57c0,4.63-1.85,6.12-5.23,6.12C208,47.19,208,42.78,208,38.24Z" transform="translate(-9.43 -9.62)"/><path class="cls-1" d="M232.25,29.57v2.88h-4V46.9h-3.62V32.45h-4V29.57Z" transform="translate(-9.43 -9.62)"/><path class="cls-1" d="M234.34,46.9V29.57H238V46.9Z" transform="translate(-9.43 -9.62)"/><path class="cls-1" d="M240.49,38.24c0-4.59,0-9,6-9s6,4.36,6,9,0,8.95-6,8.95S240.49,42.78,240.49,38.24Zm8.28,0c0-4.44-.27-6.36-2.31-6.36s-2.3,1.92-2.3,6.36.26,6.36,2.3,6.36S248.77,42.68,248.77,38.24Z" transform="translate(-9.43 -9.62)"/><path class="cls-1" d="M255.1,46.9V29.57H260l4.61,12h0v-12H268V46.9h-4.78l-4.73-12.67h0V46.9Z" transform="translate(-9.43 -9.62)"/><path class="cls-1" d="M54.48,13.14h2.05L61.77,22V13.14h1.36V23.8H61.24l-5.42-9V23.8H54.48Z" transform="translate(-9.43 -9.62)"/><path class="cls-1" d="M68.85,16.2c3,0,3.63,2.33,3.63,3.88,0,2.17-1.23,4-3.75,4s-3.64-1.7-3.64-3.87C65.09,18.35,65.94,16.2,68.85,16.2ZM68.76,23c1,0,2.24-.75,2.24-3,0-1.84-.85-2.82-2.15-2.82-.89,0-2.32.57-2.32,2.88C66.53,21.61,67.18,23,68.76,23Z" transform="translate(-9.43 -9.62)"/><path class="cls-1" d="M74.5,17.89a14.76,14.76,0,0,0-.08-1.5h1.41l0,1.43a2,2,0,0,1,1.78-1.46,4,4,0,0,1,1,0v1.36a.91.91,0,0,0-.26-.06,2.3,2.3,0,0,0-.4,0c-1.64,0-2,1-2,2.25V23.8H74.5Z" transform="translate(-9.43 -9.62)"/><path class="cls-1" d="M79.69,16.36H81V14.81l1.37-.44v2H84v1H82.37v4.44c0,.37,0,1,1,1a3,3,0,0,0,.67-.08v1.08a7.29,7.29,0,0,1-1.15.09c-1.27,0-1.88-.37-1.88-1.58V17.38H79.69Z" transform="translate(-9.43 -9.62)"/><path class="cls-1" d="M85.67,13.16h1.4v4.32a2.71,2.71,0,0,1,2.41-1.22,2.54,2.54,0,0,1,2.33,1.18,3.62,3.62,0,0,1,.25,1.72V23.8H90.64V19.41c0-.66,0-2.09-1.59-2.09a1.9,1.9,0,0,0-1.74,1,3.44,3.44,0,0,0-.24,1.56V23.8h-1.4Z" transform="translate(-9.43 -9.62)"/><path class="cls-1" d="M105.2,16a2,2,0,0,0-2.3-1.85c-2.57,0-3,2.63-3,4.4,0,2,.58,4.18,3,4.18a2.29,2.29,0,0,0,1.73-.64,2.17,2.17,0,0,0,.52-1.12h1.62c-.22,2.1-2.15,3-4,3-3.75,0-4.48-3.31-4.48-5.37,0-2.25.87-5.6,4.67-5.6,1.5,0,3.63.61,3.82,3Z" transform="translate(-9.43 -9.62)"/><path class="cls-1" d="M113.25,23.8a4.16,4.16,0,0,1-.13-1.11A2.4,2.4,0,0,1,110.83,24c-1.69,0-2.61-1-2.61-2.18a2.44,2.44,0,0,1,1.3-2.17,5.84,5.84,0,0,1,2.57-.49c.35,0,.57,0,1,0,0-.92,0-1.32-.27-1.64a1.68,1.68,0,0,0-1.28-.49c-1.4,0-1.48,1-1.49,1.26h-1.39a2.42,2.42,0,0,1,.52-1.41,3.33,3.33,0,0,1,2.39-.79,3,3,0,0,1,2.63,1.09,2.25,2.25,0,0,1,.25,1.14l-.06,3.54a15.88,15.88,0,0,0,.12,1.86Zm-1-3.65c-.56,0-2.67,0-2.67,1.51,0,.47.3,1.28,1.54,1.28a1.77,1.77,0,0,0,1.58-.8,3.47,3.47,0,0,0,.35-1.94A6,6,0,0,0,112.29,20.15Z" transform="translate(-9.43 -9.62)"/><path class="cls-1" d="M116.86,17.89a14.76,14.76,0,0,0-.08-1.5h1.41l0,1.43A2,2,0,0,1,120,16.36a4.07,4.07,0,0,1,1,0v1.36a.91.91,0,0,0-.26-.06,2.3,2.3,0,0,0-.4,0c-1.64,0-2,1-2,2.25V23.8h-1.4Z" transform="translate(-9.43 -9.62)"/><path class="cls-1" d="M125.75,16.2c3,0,3.63,2.33,3.63,3.88,0,2.17-1.22,4-3.75,4S122,22.35,122,20.18C122,18.35,122.84,16.2,125.75,16.2ZM125.66,23c1,0,2.24-.75,2.24-3,0-1.84-.85-2.82-2.15-2.82-.88,0-2.32.57-2.32,2.88C123.43,21.61,124.08,23,125.66,23Z" transform="translate(-9.43 -9.62)"/><path class="cls-1" d="M131.27,13.16h1.38V23.8h-1.38Z" transform="translate(-9.43 -9.62)"/><path class="cls-1" d="M135,13.17h1.66v1.52H135Zm.15,3.22h1.38V23.8h-1.38Z" transform="translate(-9.43 -9.62)"/><path class="cls-1" d="M138.91,17.24l0-.85h1.39v1.19a2.44,2.44,0,0,1,2.38-1.34,2.47,2.47,0,0,1,2.69,2.52v5h-1.42V19.09a1.67,1.67,0,0,0-.4-1.27,1.89,1.89,0,0,0-1.31-.5,2,2,0,0,0-1.94,2.21V23.8h-1.38Z" transform="translate(-9.43 -9.62)"/><path class="cls-1" d="M152.3,23.8a4.16,4.16,0,0,1-.13-1.11A2.41,2.41,0,0,1,149.88,24c-1.7,0-2.61-1-2.61-2.18a2.42,2.42,0,0,1,1.3-2.17,5.78,5.78,0,0,1,2.56-.49c.36,0,.58,0,1,0,0-.92,0-1.32-.27-1.64a1.68,1.68,0,0,0-1.28-.49c-1.4,0-1.48,1-1.49,1.26h-1.39a2.35,2.35,0,0,1,.52-1.41,3.33,3.33,0,0,1,2.39-.79,3,3,0,0,1,2.62,1.09,2.17,2.17,0,0,1,.26,1.14l-.06,3.54a17.54,17.54,0,0,0,.11,1.86Zm-1-3.65c-.56,0-2.67,0-2.67,1.51,0,.47.29,1.28,1.54,1.28a1.77,1.77,0,0,0,1.57-.8,3.45,3.45,0,0,0,.36-1.94A6,6,0,0,0,151.34,20.15Z" transform="translate(-9.43 -9.62)"/><path class="cls-1" d="M160.09,13.14h3.08c1.43,0,3.11,0,4.29,1.39a6.11,6.11,0,0,1,1.32,4A5.44,5.44,0,0,1,167,22.92c-1,.88-2.36.88-3.93.88h-3Zm1.47,9.45H163A4.75,4.75,0,0,0,165.8,22a4.16,4.16,0,0,0,1.4-3.38,5.31,5.31,0,0,0-1-3.32,3.4,3.4,0,0,0-2.84-.93h-1.77Z" transform="translate(-9.43 -9.62)"/><path class="cls-1" d="M171.69,20.34c0,1.54.6,2.67,2.12,2.67a1.6,1.6,0,0,0,1.74-1.53h1.39a2.49,2.49,0,0,1-.63,1.55,3.23,3.23,0,0,1-2.56,1c-2.33,0-3.43-1.45-3.43-3.8a3.82,3.82,0,0,1,1.46-3.48,3.54,3.54,0,0,1,2-.54c3.32,0,3.24,2.93,3.21,4.14Zm3.91-1c0-.71-.12-2.18-1.83-2.18a2,2,0,0,0-2,2.18Z" transform="translate(-9.43 -9.62)"/><path class="cls-1" d="M178.86,17.6c0-.33,0-.5-.05-1.21h1.4l0,1.22a2.9,2.9,0,0,1,2.53-1.34c1.59,0,3.11,1.09,3.11,3.84s-1.61,4-3.38,4A2.56,2.56,0,0,1,180.23,23v3.67h-1.37Zm3.4,5.46a1.9,1.9,0,0,0,1.57-.73,4.13,4.13,0,0,0,.6-2.31c0-1.33-.39-2.72-2-2.72-2.22,0-2.22,2.35-2.22,3C180.18,21.21,180.32,23.06,182.26,23.06Z" transform="translate(-9.43 -9.62)"/><path class="cls-1" d="M192.4,23.8a4.16,4.16,0,0,1-.13-1.11A2.4,2.4,0,0,1,190,24c-1.69,0-2.61-1-2.61-2.18a2.44,2.44,0,0,1,1.3-2.17,5.84,5.84,0,0,1,2.57-.49c.35,0,.57,0,1,0,0-.92,0-1.32-.26-1.64a1.71,1.71,0,0,0-1.29-.49c-1.4,0-1.47,1-1.49,1.26h-1.39a2.42,2.42,0,0,1,.52-1.41,3.33,3.33,0,0,1,2.39-.79,3,3,0,0,1,2.63,1.09,2.25,2.25,0,0,1,.25,1.14l-.06,3.54a15.88,15.88,0,0,0,.12,1.86Zm-1-3.65c-.56,0-2.67,0-2.67,1.51,0,.47.3,1.28,1.54,1.28a1.77,1.77,0,0,0,1.58-.8,3.47,3.47,0,0,0,.35-1.94A6,6,0,0,0,191.44,20.15Z" transform="translate(-9.43 -9.62)"/><path class="cls-1" d="M196,17.89a14.76,14.76,0,0,0-.08-1.5h1.41l0,1.43a2,2,0,0,1,1.77-1.46,4,4,0,0,1,1,0v1.36a.91.91,0,0,0-.26-.06,2.3,2.3,0,0,0-.4,0c-1.64,0-2,1-2,2.25V23.8H196Z" transform="translate(-9.43 -9.62)"/><path class="cls-1" d="M201.1,16.36h1.32V14.81l1.37-.44v2h1.65v1h-1.65v4.44c0,.37,0,1,1,1a2.92,2.92,0,0,0,.66-.08v1.08a7.29,7.29,0,0,1-1.15.09c-1.27,0-1.87-.37-1.87-1.58V17.38H201.1Z" transform="translate(-9.43 -9.62)"/><path class="cls-1" d="M207.09,17.38l0-1h1.4v1.08a2.52,2.52,0,0,1,2.35-1.27,2.36,2.36,0,0,1,2.42,1.38,2.66,2.66,0,0,1,2.49-1.38,2.46,2.46,0,0,1,2.72,2.62v5H217V19a1.86,1.86,0,0,0-.25-1.12,1.68,1.68,0,0,0-1.42-.65,1.89,1.89,0,0,0-1.58.79,3.06,3.06,0,0,0-.32,1.59V23.8h-1.41V18.9a1.5,1.5,0,0,0-1.62-1.63,2,2,0,0,0-1.62.81,2.62,2.62,0,0,0-.33,1.51V23.8h-1.4Z" transform="translate(-9.43 -9.62)"/><path class="cls-1" d="M221.5,20.34c0,1.54.61,2.67,2.13,2.67a1.61,1.61,0,0,0,1.74-1.53h1.39a2.58,2.58,0,0,1-.64,1.55,3.19,3.19,0,0,1-2.55,1c-2.33,0-3.44-1.45-3.44-3.8a3.84,3.84,0,0,1,1.46-3.48,3.57,3.57,0,0,1,2-.54c3.32,0,3.25,2.93,3.22,4.14Zm3.91-1c0-.71-.11-2.18-1.83-2.18a2,2,0,0,0-2,2.18Z" transform="translate(-9.43 -9.62)"/><path class="cls-1" d="M228.76,17.24v-.85h1.38l0,1.19a2.41,2.41,0,0,1,2.37-1.34,2.47,2.47,0,0,1,2.69,2.52v5h-1.42V19.09a1.67,1.67,0,0,0-.4-1.27,1.89,1.89,0,0,0-1.31-.5,2,2,0,0,0-1.93,2.21V23.8h-1.39Z" transform="translate(-9.43 -9.62)"/><path class="cls-1" d="M236.59,16.36h1.32V14.81l1.37-.44v2h1.65v1h-1.65v4.44c0,.37,0,1,1,1a2.92,2.92,0,0,0,.66-.08v1.08a7.29,7.29,0,0,1-1.15.09c-1.27,0-1.87-.37-1.87-1.58V17.38h-1.32Z" transform="translate(-9.43 -9.62)"/><path class="cls-1" d="M250,16.2c3,0,3.63,2.33,3.63,3.88,0,2.17-1.23,4-3.75,4s-3.64-1.7-3.64-3.87C246.2,18.35,247.05,16.2,250,16.2ZM249.87,23c1,0,2.24-.75,2.24-3,0-1.84-.85-2.82-2.15-2.82-.89,0-2.32.57-2.32,2.88C247.64,21.61,248.29,23,249.87,23Z" transform="translate(-9.43 -9.62)"/><path class="cls-1" d="M259.09,14.17l-.81,0c-1.13,0-1.13.56-1.13,1.07v1.17h1.73v1h-1.73V23.8h-1.37V17.39h-1.46v-1h1.46v-.84a2.91,2.91,0,0,1,.31-1.77A2.06,2.06,0,0,1,258,13a7.35,7.35,0,0,1,1.14.11Z" transform="translate(-9.43 -9.62)"/></svg>